<mxfile host="app.diagrams.net" agent="Mozilla/5.0 (Windows NT 10.0; Win64; x64) AppleWebKit/537.36 (KHTML, like Gecko) Chrome/130.0.0.0 Safari/537.36 OPR/115.0.0.0" version="26.0.7">
  <diagram name="Page-1" id="efARjDcXvOc3rk5b5u3u">
    <mxGraphModel dx="1392" dy="761" grid="1" gridSize="10" guides="1" tooltips="1" connect="1" arrows="1" fold="1" page="1" pageScale="1" pageWidth="1200" pageHeight="1920" math="0" shadow="0">
      <root>
        <mxCell id="0" />
        <mxCell id="1" parent="0" />
        <mxCell id="PMzsmYmVDIkMxbADWyHm-15" style="edgeStyle=orthogonalEdgeStyle;rounded=0;orthogonalLoop=1;jettySize=auto;html=1;exitX=0.5;exitY=1;exitDx=0;exitDy=0;entryX=0.5;entryY=0;entryDx=0;entryDy=0;" edge="1" parent="1" source="2" target="PMzsmYmVDIkMxbADWyHm-14">
          <mxGeometry relative="1" as="geometry" />
        </mxCell>
        <mxCell id="2" value="Vulkan Application" style="whiteSpace=wrap;strokeWidth=2;" parent="1" vertex="1">
          <mxGeometry x="10" y="8" width="110" height="54" as="geometry" />
        </mxCell>
        <mxCell id="PMzsmYmVDIkMxbADWyHm-20" style="edgeStyle=orthogonalEdgeStyle;rounded=0;orthogonalLoop=1;jettySize=auto;html=1;exitX=0.5;exitY=1;exitDx=0;exitDy=0;entryX=0.5;entryY=0;entryDx=0;entryDy=0;" edge="1" parent="1" source="PMzsmYmVDIkMxbADWyHm-14" target="PMzsmYmVDIkMxbADWyHm-16">
          <mxGeometry relative="1" as="geometry" />
        </mxCell>
        <mxCell id="PMzsmYmVDIkMxbADWyHm-14" value="Initialize Window" style="rounded=1;whiteSpace=wrap;html=1;" vertex="1" parent="1">
          <mxGeometry x="5" y="80" width="120" height="60" as="geometry" />
        </mxCell>
        <mxCell id="PMzsmYmVDIkMxbADWyHm-21" style="edgeStyle=orthogonalEdgeStyle;rounded=0;orthogonalLoop=1;jettySize=auto;html=1;exitX=0.5;exitY=1;exitDx=0;exitDy=0;entryX=0.5;entryY=0;entryDx=0;entryDy=0;" edge="1" parent="1" source="PMzsmYmVDIkMxbADWyHm-16" target="PMzsmYmVDIkMxbADWyHm-17">
          <mxGeometry relative="1" as="geometry" />
        </mxCell>
        <mxCell id="PMzsmYmVDIkMxbADWyHm-16" value="Initialize Vulkan" style="rounded=1;whiteSpace=wrap;html=1;" vertex="1" parent="1">
          <mxGeometry x="5" y="160" width="120" height="60" as="geometry" />
        </mxCell>
        <mxCell id="PMzsmYmVDIkMxbADWyHm-22" style="edgeStyle=orthogonalEdgeStyle;rounded=0;orthogonalLoop=1;jettySize=auto;html=1;exitX=0.5;exitY=1;exitDx=0;exitDy=0;entryX=0.5;entryY=0;entryDx=0;entryDy=0;" edge="1" parent="1" source="PMzsmYmVDIkMxbADWyHm-17" target="PMzsmYmVDIkMxbADWyHm-18">
          <mxGeometry relative="1" as="geometry" />
        </mxCell>
        <mxCell id="PMzsmYmVDIkMxbADWyHm-17" value="Main Loop" style="rounded=1;whiteSpace=wrap;html=1;" vertex="1" parent="1">
          <mxGeometry x="5" y="240" width="120" height="60" as="geometry" />
        </mxCell>
        <mxCell id="PMzsmYmVDIkMxbADWyHm-23" style="edgeStyle=orthogonalEdgeStyle;rounded=0;orthogonalLoop=1;jettySize=auto;html=1;exitX=0.5;exitY=1;exitDx=0;exitDy=0;entryX=0.5;entryY=0;entryDx=0;entryDy=0;" edge="1" parent="1" source="PMzsmYmVDIkMxbADWyHm-18" target="PMzsmYmVDIkMxbADWyHm-19">
          <mxGeometry relative="1" as="geometry" />
        </mxCell>
        <mxCell id="PMzsmYmVDIkMxbADWyHm-18" value="Cleanup" style="rounded=1;whiteSpace=wrap;html=1;" vertex="1" parent="1">
          <mxGeometry x="5" y="320" width="120" height="60" as="geometry" />
        </mxCell>
        <mxCell id="PMzsmYmVDIkMxbADWyHm-19" value="End Application" style="whiteSpace=wrap;strokeWidth=2;" vertex="1" parent="1">
          <mxGeometry x="10" y="400" width="110" height="54" as="geometry" />
        </mxCell>
      </root>
    </mxGraphModel>
  </diagram>
</mxfile>
